<?xml version="1.0" encoding="UTF-8"?>
<svg xmlns="http://www.w3.org/2000/svg" xmlns:xlink="http://www.w3.org/1999/xlink" width="900pt" height="599.999999pt" viewBox="0 0 900 599.999999" version="1.2">
<defs>
<clipPath id="clip1">
  <path d="M 687 380 L 900 380 L 900 600 L 687 600 Z M 687 380 "/>
</clipPath>
<clipPath id="clip2">
  <path d="M 624.164062 458.273438 L 784.71875 313.777344 L 964.332031 513.355469 L 803.78125 657.851562 Z M 624.164062 458.273438 "/>
</clipPath>
<clipPath id="clip3">
  <path d="M 624.164062 458.273438 L 784.71875 313.777344 L 964.332031 513.355469 L 803.78125 657.851562 Z M 624.164062 458.273438 "/>
</clipPath>
<clipPath id="clip4">
  <path d="M 668 69 L 804.300781 69 L 804.300781 207.324219 L 668 207.324219 Z M 668 69 "/>
</clipPath>
<clipPath id="clip5">
  <path d="M 548.550781 0 L 689 0 L 689 105 L 548.550781 105 Z M 548.550781 0 "/>
</clipPath>
<clipPath id="clip6">
  <path d="M 396 496 L 434 496 L 434 536 L 396 536 Z M 396 496 "/>
</clipPath>
<clipPath id="clip7">
  <path d="M 397.753906 383.816406 L 489.898438 545.386719 L 261.222656 675.804688 L 169.078125 514.234375 Z M 397.753906 383.816406 "/>
</clipPath>
<clipPath id="clip8">
  <path d="M 397.753906 383.816406 L 489.898438 545.386719 L 261.222656 675.804688 L 169.078125 514.234375 Z M 397.753906 383.816406 "/>
</clipPath>
<clipPath id="clip9">
  <path d="M 397.753906 383.816406 L 490.003906 545.570312 L 261.582031 675.84375 L 169.332031 514.089844 Z M 397.753906 383.816406 "/>
</clipPath>
<clipPath id="clip10">
  <path d="M 384 428 L 426 428 L 426 468 L 384 468 Z M 384 428 "/>
</clipPath>
<clipPath id="clip11">
  <path d="M 397.753906 383.816406 L 489.898438 545.386719 L 261.222656 675.804688 L 169.078125 514.234375 Z M 397.753906 383.816406 "/>
</clipPath>
<clipPath id="clip12">
  <path d="M 397.753906 383.816406 L 489.898438 545.386719 L 261.222656 675.804688 L 169.078125 514.234375 Z M 397.753906 383.816406 "/>
</clipPath>
<clipPath id="clip13">
  <path d="M 397.753906 383.816406 L 490.003906 545.570312 L 261.582031 675.84375 L 169.332031 514.089844 Z M 397.753906 383.816406 "/>
</clipPath>
<clipPath id="clip14">
  <path d="M 337 483 L 386 483 L 386 530 L 337 530 Z M 337 483 "/>
</clipPath>
<clipPath id="clip15">
  <path d="M 397.753906 383.816406 L 489.898438 545.386719 L 261.222656 675.804688 L 169.078125 514.234375 Z M 397.753906 383.816406 "/>
</clipPath>
<clipPath id="clip16">
  <path d="M 397.753906 383.816406 L 489.898438 545.386719 L 261.222656 675.804688 L 169.078125 514.234375 Z M 397.753906 383.816406 "/>
</clipPath>
<clipPath id="clip17">
  <path d="M 397.753906 383.816406 L 490.003906 545.570312 L 261.582031 675.84375 L 169.332031 514.089844 Z M 397.753906 383.816406 "/>
</clipPath>
<clipPath id="clip18">
  <path d="M 322 422 L 364 422 L 364 467 L 322 467 Z M 322 422 "/>
</clipPath>
<clipPath id="clip19">
  <path d="M 397.753906 383.816406 L 489.898438 545.386719 L 261.222656 675.804688 L 169.078125 514.234375 Z M 397.753906 383.816406 "/>
</clipPath>
<clipPath id="clip20">
  <path d="M 397.753906 383.816406 L 489.898438 545.386719 L 261.222656 675.804688 L 169.078125 514.234375 Z M 397.753906 383.816406 "/>
</clipPath>
<clipPath id="clip21">
  <path d="M 397.753906 383.816406 L 490.003906 545.570312 L 261.582031 675.84375 L 169.332031 514.089844 Z M 397.753906 383.816406 "/>
</clipPath>
<clipPath id="clip22">
  <path d="M 274 448 L 300 448 L 300 477 L 274 477 Z M 274 448 "/>
</clipPath>
<clipPath id="clip23">
  <path d="M 397.753906 383.816406 L 489.898438 545.386719 L 261.222656 675.804688 L 169.078125 514.234375 Z M 397.753906 383.816406 "/>
</clipPath>
<clipPath id="clip24">
  <path d="M 397.753906 383.816406 L 489.898438 545.386719 L 261.222656 675.804688 L 169.078125 514.234375 Z M 397.753906 383.816406 "/>
</clipPath>
<clipPath id="clip25">
  <path d="M 397.753906 383.816406 L 490.003906 545.570312 L 261.582031 675.84375 L 169.332031 514.089844 Z M 397.753906 383.816406 "/>
</clipPath>
<clipPath id="clip26">
  <path d="M 282 484 L 320 484 L 320 527 L 282 527 Z M 282 484 "/>
</clipPath>
<clipPath id="clip27">
  <path d="M 397.753906 383.816406 L 489.898438 545.386719 L 261.222656 675.804688 L 169.078125 514.234375 Z M 397.753906 383.816406 "/>
</clipPath>
<clipPath id="clip28">
  <path d="M 397.753906 383.816406 L 489.898438 545.386719 L 261.222656 675.804688 L 169.078125 514.234375 Z M 397.753906 383.816406 "/>
</clipPath>
<clipPath id="clip29">
  <path d="M 397.753906 383.816406 L 490.003906 545.570312 L 261.582031 675.84375 L 169.332031 514.089844 Z M 397.753906 383.816406 "/>
</clipPath>
<clipPath id="clip30">
  <path d="M 344 542 L 375 542 L 375 573 L 344 573 Z M 344 542 "/>
</clipPath>
<clipPath id="clip31">
  <path d="M 397.753906 383.816406 L 489.898438 545.386719 L 261.222656 675.804688 L 169.078125 514.234375 Z M 397.753906 383.816406 "/>
</clipPath>
<clipPath id="clip32">
  <path d="M 397.753906 383.816406 L 489.898438 545.386719 L 261.222656 675.804688 L 169.078125 514.234375 Z M 397.753906 383.816406 "/>
</clipPath>
<clipPath id="clip33">
  <path d="M 397.753906 383.816406 L 490.003906 545.570312 L 261.582031 675.84375 L 169.332031 514.089844 Z M 397.753906 383.816406 "/>
</clipPath>
<clipPath id="clip34">
  <path d="M 287 542 L 332 542 L 332 588 L 287 588 Z M 287 542 "/>
</clipPath>
<clipPath id="clip35">
  <path d="M 397.753906 383.816406 L 489.898438 545.386719 L 261.222656 675.804688 L 169.078125 514.234375 Z M 397.753906 383.816406 "/>
</clipPath>
<clipPath id="clip36">
  <path d="M 397.753906 383.816406 L 489.898438 545.386719 L 261.222656 675.804688 L 169.078125 514.234375 Z M 397.753906 383.816406 "/>
</clipPath>
<clipPath id="clip37">
  <path d="M 397.753906 383.816406 L 490.003906 545.570312 L 261.582031 675.84375 L 169.332031 514.089844 Z M 397.753906 383.816406 "/>
</clipPath>
<clipPath id="clip38">
  <path d="M 261 535 L 286 535 L 286 562 L 261 562 Z M 261 535 "/>
</clipPath>
<clipPath id="clip39">
  <path d="M 397.753906 383.816406 L 489.898438 545.386719 L 261.222656 675.804688 L 169.078125 514.234375 Z M 397.753906 383.816406 "/>
</clipPath>
<clipPath id="clip40">
  <path d="M 397.753906 383.816406 L 489.898438 545.386719 L 261.222656 675.804688 L 169.078125 514.234375 Z M 397.753906 383.816406 "/>
</clipPath>
<clipPath id="clip41">
  <path d="M 397.753906 383.816406 L 490.003906 545.570312 L 261.582031 675.84375 L 169.332031 514.089844 Z M 397.753906 383.816406 "/>
</clipPath>
<clipPath id="clip42">
  <path d="M 222 498 L 264 498 L 264 545 L 222 545 Z M 222 498 "/>
</clipPath>
<clipPath id="clip43">
  <path d="M 397.753906 383.816406 L 489.898438 545.386719 L 261.222656 675.804688 L 169.078125 514.234375 Z M 397.753906 383.816406 "/>
</clipPath>
<clipPath id="clip44">
  <path d="M 397.753906 383.816406 L 489.898438 545.386719 L 261.222656 675.804688 L 169.078125 514.234375 Z M 397.753906 383.816406 "/>
</clipPath>
<clipPath id="clip45">
  <path d="M 397.753906 383.816406 L 490.003906 545.570312 L 261.582031 675.84375 L 169.332031 514.089844 Z M 397.753906 383.816406 "/>
</clipPath>
<clipPath id="clip46">
  <path d="M 378 560 L 414 560 L 414 600 L 378 600 Z M 378 560 "/>
</clipPath>
<clipPath id="clip47">
  <path d="M 397.753906 383.816406 L 489.898438 545.386719 L 261.222656 675.804688 L 169.078125 514.234375 Z M 397.753906 383.816406 "/>
</clipPath>
<clipPath id="clip48">
  <path d="M 397.753906 383.816406 L 489.898438 545.386719 L 261.222656 675.804688 L 169.078125 514.234375 Z M 397.753906 383.816406 "/>
</clipPath>
<clipPath id="clip49">
  <path d="M 397.753906 383.816406 L 490.003906 545.570312 L 261.582031 675.84375 L 169.332031 514.089844 Z M 397.753906 383.816406 "/>
</clipPath>
<clipPath id="clip50">
  <path d="M 406.019531 555.914062 L 422.183594 584.25 L 385.324219 605.269531 L 369.164062 576.933594 Z M 406.019531 555.914062 "/>
</clipPath>
<clipPath id="clip51">
  <path d="M 406.019531 555.914062 L 422.171875 584.234375 L 385.316406 605.253906 L 369.164062 576.933594 Z M 406.019531 555.914062 "/>
</clipPath>
<clipPath id="clip52">
  <path d="M 322 596 L 361 596 L 361 600 L 322 600 Z M 322 596 "/>
</clipPath>
<clipPath id="clip53">
  <path d="M 397.753906 383.816406 L 489.898438 545.386719 L 261.222656 675.804688 L 169.078125 514.234375 Z M 397.753906 383.816406 "/>
</clipPath>
<clipPath id="clip54">
  <path d="M 397.753906 383.816406 L 489.898438 545.386719 L 261.222656 675.804688 L 169.078125 514.234375 Z M 397.753906 383.816406 "/>
</clipPath>
<clipPath id="clip55">
  <path d="M 397.753906 383.816406 L 490.003906 545.570312 L 261.582031 675.84375 L 169.332031 514.089844 Z M 397.753906 383.816406 "/>
</clipPath>
<clipPath id="clip56">
  <path d="M 226 579 L 268 579 L 268 600 L 226 600 Z M 226 579 "/>
</clipPath>
<clipPath id="clip57">
  <path d="M 397.753906 383.816406 L 489.898438 545.386719 L 261.222656 675.804688 L 169.078125 514.234375 Z M 397.753906 383.816406 "/>
</clipPath>
<clipPath id="clip58">
  <path d="M 397.753906 383.816406 L 489.898438 545.386719 L 261.222656 675.804688 L 169.078125 514.234375 Z M 397.753906 383.816406 "/>
</clipPath>
<clipPath id="clip59">
  <path d="M 397.753906 383.816406 L 490.003906 545.570312 L 261.582031 675.84375 L 169.332031 514.089844 Z M 397.753906 383.816406 "/>
</clipPath>
<clipPath id="clip60">
  <path d="M 256.507812 573.949219 L 275.277344 606.855469 L 235.234375 629.691406 L 216.464844 596.785156 Z M 256.507812 573.949219 "/>
</clipPath>
<clipPath id="clip61">
  <path d="M 256.507812 573.949219 L 275.277344 606.855469 L 235.347656 629.628906 L 216.582031 596.71875 Z M 256.507812 573.949219 "/>
</clipPath>
</defs>
<g id="surface1">
<rect x="0" y="0" width="900" height="599.999999" style="fill:rgb(100%,100%,100%);fill-opacity:1;stroke:none;"/>
<rect x="0" y="0" width="900" height="599.999999" style="fill:rgb(100%,100%,100%);fill-opacity:1;stroke:none;"/>
<rect x="0" y="0" width="900" height="599.999999" style="fill:rgb(100%,100%,100%);fill-opacity:1;stroke:none;"/>
<rect x="0" y="0" width="900" height="599.999999" style="fill:rgb(100%,97.24884%,95.289612%);fill-opacity:1;stroke:none;"/>
<g clip-path="url(#clip1)" clip-rule="nonzero">
<g clip-path="url(#clip2)" clip-rule="nonzero">
<g clip-path="url(#clip3)" clip-rule="nonzero">
<path style=" stroke:none;fill-rule:evenodd;fill:rgb(86.669922%,74.508667%,66.268921%);fill-opacity:1;" d="M 756.863281 563.121094 C 722.667969 544.417969 686.628906 490.730469 687.972656 443.097656 C 688.648438 419.355469 715.28125 376.402344 743.617188 380.667969 C 760.050781 383.140625 772.679688 396.492188 788.390625 401.210938 C 803.03125 405.605469 818.195312 396.042969 833.328125 400.097656 C 865.597656 408.75 873.128906 434.804688 893.78125 456.09375 C 911.378906 474.234375 938.410156 484.558594 929.867188 514.902344 C 922.242188 541.972656 887.210938 552.410156 868.765625 570.574219 C 855.339844 583.796875 839.035156 625.964844 821.84375 629.253906 C 784.480469 636.398438 794.453125 584.960938 786.789062 572.929688 C 780.53125 563.105469 766.074219 568.164062 756.863281 563.121094 Z M 756.863281 563.121094 "/>
</g>
</g>
</g>
<g clip-path="url(#clip4)" clip-rule="nonzero">
<path style=" stroke:none;fill-rule:nonzero;fill:rgb(79.60968%,59.999084%,49.409485%);fill-opacity:1;" d="M 752.558594 204.796875 C 797.675781 200.96875 813.453125 149.40625 799.238281 111.769531 C 786.574219 76.574219 725.796875 55.335938 694.320312 79.328125 C 667.75 100.230469 658.234375 161.082031 682.761719 184.667969 C 694.25 195.234375 721.511719 211.972656 742.253906 206.039062 L 752.558594 204.796875 "/>
</g>
<g clip-path="url(#clip5)" clip-rule="nonzero">
<path style=" stroke:none;fill-rule:nonzero;fill:rgb(79.60968%,59.999084%,49.409485%);fill-opacity:1;" d="M 549.144531 37.46875 C 542.730469 82.25 589.464844 109.210938 629.367188 103.835938 C 666.53125 99.425781 700.914062 45.027344 684.597656 8.992188 C 670.191406 -21.578125 612.984375 -44.535156 584.472656 -25.960938 C 571.589844 -17.148438 549.128906 5.621094 550.253906 27.15625 L 549.144531 37.46875 "/>
</g>
<path style=" stroke:none;fill-rule:evenodd;fill:rgb(92.939758%,77.648926%,69.40918%);fill-opacity:1;" d="M 8.921875 104.859375 C -28.84375 160.535156 -16.378906 233.523438 -19.566406 297.996094 C -23.503906 376.503906 53.8125 459.875 151.9375 434.144531 C 186.519531 425.160156 211.539062 396.714844 244.433594 383.613281 C 315.847656 355.167969 415.5625 338.699219 444.148438 264.777344 C 474.699219 185.800781 348.367188 44.410156 267.488281 10.535156 C 136.285156 -44.671875 48.566406 46.28125 8.921875 104.859375 Z M 8.921875 104.859375 "/>
<g clip-path="url(#clip6)" clip-rule="nonzero">
<g clip-path="url(#clip7)" clip-rule="nonzero">
<g clip-path="url(#clip8)" clip-rule="nonzero">
<g clip-path="url(#clip9)" clip-rule="nonzero">
<path style=" stroke:none;fill-rule:nonzero;fill:rgb(85.488892%,64.709473%,59.999084%);fill-opacity:1;" d="M 425.359375 496.769531 C 419.921875 498.167969 414.460938 499.726562 409.566406 502.476562 C 399.453125 508.167969 387.484375 532.566406 406.066406 535.207031 C 416.890625 536.742188 428.070312 526.4375 431.800781 517.128906 C 434.507812 510.378906 436.664062 493.867188 425.359375 496.769531 "/>
</g>
</g>
</g>
</g>
<g clip-path="url(#clip10)" clip-rule="nonzero">
<g clip-path="url(#clip11)" clip-rule="nonzero">
<g clip-path="url(#clip12)" clip-rule="nonzero">
<g clip-path="url(#clip13)" clip-rule="nonzero">
<path style=" stroke:none;fill-rule:nonzero;fill:rgb(85.488892%,64.709473%,59.999084%);fill-opacity:1;" d="M 424.3125 439.558594 C 424.800781 438.011719 425.226562 436.386719 425.023438 434.773438 C 424.570312 431.15625 420.972656 428.5625 417.363281 428.121094 C 413.75 427.683594 410.164062 428.925781 406.820312 430.335938 C 400.28125 433.089844 393.882812 436.710938 389.484375 442.277344 C 385.085938 447.847656 383.03125 455.691406 385.765625 462.269531 C 386.574219 464.207031 387.875 466.078125 389.804688 466.898438 C 392.257812 467.941406 395.050781 467.078125 397.558594 466.207031 C 403.449219 464.164062 411.042969 462.898438 415.171875 457.882812 C 419.214844 452.960938 422.402344 445.5625 424.3125 439.558594 "/>
</g>
</g>
</g>
</g>
<g clip-path="url(#clip14)" clip-rule="nonzero">
<g clip-path="url(#clip15)" clip-rule="nonzero">
<g clip-path="url(#clip16)" clip-rule="nonzero">
<g clip-path="url(#clip17)" clip-rule="nonzero">
<path style=" stroke:none;fill-rule:nonzero;fill:rgb(85.488892%,64.709473%,59.999084%);fill-opacity:1;" d="M 385.929688 490.832031 C 385.988281 489.285156 385.910156 487.582031 384.867188 486.441406 C 384.109375 485.609375 382.976562 485.25 381.890625 484.96875 C 373.1875 482.738281 363.671875 483.917969 355.796875 488.210938 C 347.921875 492.5 341.769531 499.851562 338.925781 508.378906 C 337.164062 513.652344 336.796875 519.925781 340.144531 524.386719 C 343.402344 528.730469 349.453125 530.195312 354.800781 529.355469 C 360.144531 528.511719 364.96875 525.761719 369.617188 522.996094 C 382.472656 515.351562 385.398438 505.453125 385.929688 490.832031 "/>
</g>
</g>
</g>
</g>
<g clip-path="url(#clip18)" clip-rule="nonzero">
<g clip-path="url(#clip19)" clip-rule="nonzero">
<g clip-path="url(#clip20)" clip-rule="nonzero">
<g clip-path="url(#clip21)" clip-rule="nonzero">
<path style=" stroke:none;fill-rule:nonzero;fill:rgb(85.488892%,64.709473%,59.999084%);fill-opacity:1;" d="M 328.945312 446.246094 C 325.503906 449.613281 321.789062 453.699219 322.308594 458.503906 C 322.878906 463.804688 328.765625 467.265625 334.074219 466.949219 C 339.382812 466.628906 344.089844 463.550781 348.300781 460.308594 C 352.164062 457.332031 355.921875 454.046875 358.398438 449.84375 C 361.933594 443.84375 362.515625 436.605469 363.015625 429.648438 C 363.691406 420.253906 355.578125 420.558594 350.304688 425.335938 C 342.9375 432.003906 336.046875 439.292969 328.945312 446.246094 "/>
</g>
</g>
</g>
</g>
<g clip-path="url(#clip22)" clip-rule="nonzero">
<g clip-path="url(#clip23)" clip-rule="nonzero">
<g clip-path="url(#clip24)" clip-rule="nonzero">
<g clip-path="url(#clip25)" clip-rule="nonzero">
<path style=" stroke:none;fill-rule:nonzero;fill:rgb(85.488892%,64.709473%,59.999084%);fill-opacity:1;" d="M 296.585938 449.789062 C 295.023438 448.839844 293.105469 448.714844 291.277344 448.769531 C 286.191406 448.917969 280.800781 450.511719 277.699219 454.546875 C 275.757812 457.078125 274.921875 460.3125 274.660156 463.507812 C 274.335938 467.4375 274.871094 471.566406 276.976562 474.902344 C 277.300781 475.414062 277.6875 475.929688 278.242188 476.164062 C 278.792969 476.398438 279.417969 476.324219 280.003906 476.222656 C 285.226562 475.304688 292.511719 471.546875 296.003906 467.363281 C 299.417969 463.277344 302.289062 453.25 296.585938 449.789062 "/>
</g>
</g>
</g>
</g>
<g clip-path="url(#clip26)" clip-rule="nonzero">
<g clip-path="url(#clip27)" clip-rule="nonzero">
<g clip-path="url(#clip28)" clip-rule="nonzero">
<g clip-path="url(#clip29)" clip-rule="nonzero">
<path style=" stroke:none;fill-rule:nonzero;fill:rgb(85.488892%,64.709473%,59.999084%);fill-opacity:1;" d="M 291.191406 497.933594 C 288.074219 501.167969 284.878906 504.542969 283.511719 509.117188 C 282.148438 513.6875 283.109375 519.816406 287.058594 523.503906 C 290.316406 526.546875 294.851562 527.214844 298.464844 526.160156 C 302.074219 525.109375 304.933594 522.605469 307.5625 519.988281 C 310.65625 516.90625 313.554688 513.605469 316.234375 510.101562 C 317.105469 508.960938 317.957031 507.789062 318.59375 506.464844 C 320.265625 502.988281 320.328125 498.457031 318.765625 494.292969 C 311.378906 474.582031 297.898438 490.984375 291.191406 497.933594 "/>
</g>
</g>
</g>
</g>
<g clip-path="url(#clip30)" clip-rule="nonzero">
<g clip-path="url(#clip31)" clip-rule="nonzero">
<g clip-path="url(#clip32)" clip-rule="nonzero">
<g clip-path="url(#clip33)" clip-rule="nonzero">
<path style=" stroke:none;fill-rule:nonzero;fill:rgb(85.488892%,64.709473%,59.999084%);fill-opacity:1;" d="M 354.28125 547.421875 C 351.847656 548.808594 349.371094 550.292969 347.675781 552.523438 C 345.457031 555.441406 344.851562 559.25 344.445312 562.902344 C 344.335938 563.890625 344.238281 564.90625 344.5 565.871094 C 345.054688 567.914062 347.03125 569.183594 348.859375 570.25 C 350.746094 571.34375 352.75 572.464844 354.925781 572.441406 C 356.609375 572.421875 358.207031 571.714844 359.675781 570.890625 C 366.738281 566.925781 374.78125 557.535156 374.574219 548.828125 C 374.28125 536.546875 360.027344 544.140625 354.28125 547.421875 "/>
</g>
</g>
</g>
</g>
<g clip-path="url(#clip34)" clip-rule="nonzero">
<g clip-path="url(#clip35)" clip-rule="nonzero">
<g clip-path="url(#clip36)" clip-rule="nonzero">
<g clip-path="url(#clip37)" clip-rule="nonzero">
<path style=" stroke:none;fill-rule:nonzero;fill:rgb(85.488892%,64.709473%,59.999084%);fill-opacity:1;" d="M 298.175781 552.332031 C 296.605469 554.347656 295.425781 556.644531 294.320312 558.957031 C 292.199219 563.421875 290.328125 568.007812 288.734375 572.691406 C 287.921875 575.058594 287.1875 577.691406 288.128906 580.019531 C 288.589844 581.164062 289.425781 582.128906 290.335938 582.96875 C 292.59375 585.066406 295.394531 586.570312 298.382812 587.289062 C 305.4375 588.988281 313.03125 586.171875 318.363281 581.273438 C 325.578125 574.644531 335.410156 557.265625 329.335938 547.445312 C 322.585938 536.527344 304.035156 544.8125 298.175781 552.332031 "/>
</g>
</g>
</g>
</g>
<g clip-path="url(#clip38)" clip-rule="nonzero">
<g clip-path="url(#clip39)" clip-rule="nonzero">
<g clip-path="url(#clip40)" clip-rule="nonzero">
<g clip-path="url(#clip41)" clip-rule="nonzero">
<path style=" stroke:none;fill-rule:nonzero;fill:rgb(85.488892%,64.709473%,59.999084%);fill-opacity:1;" d="M 264.535156 543.953125 C 262.992188 547.53125 262.199219 551.390625 261.421875 555.214844 C 261.230469 556.152344 261.046875 557.140625 261.351562 558.046875 C 261.519531 558.550781 261.832031 559 262.191406 559.394531 C 263.957031 561.351562 266.753906 562.101562 269.371094 561.960938 C 271.992188 561.820312 274.496094 560.894531 276.945312 559.957031 C 278.507812 559.359375 280.09375 558.734375 281.429688 557.71875 C 284.015625 555.746094 285.382812 552.40625 285.335938 549.140625 C 285.285156 545.875 283.9375 542.710938 281.9375 540.125 C 275.6875 532.035156 267.910156 536.148438 264.535156 543.953125 "/>
</g>
</g>
</g>
</g>
<g clip-path="url(#clip42)" clip-rule="nonzero">
<g clip-path="url(#clip43)" clip-rule="nonzero">
<g clip-path="url(#clip44)" clip-rule="nonzero">
<g clip-path="url(#clip45)" clip-rule="nonzero">
<path style=" stroke:none;fill-rule:nonzero;fill:rgb(85.488892%,64.709473%,59.999084%);fill-opacity:1;" d="M 231.117188 506.015625 C 227.292969 509.144531 224.949219 513.804688 223.804688 518.625 C 222.664062 523.441406 222.625 528.453125 222.738281 533.410156 C 222.820312 536.945312 223.21875 540.96875 226.039062 543.101562 C 227.636719 544.3125 229.726562 544.652344 231.726562 544.699219 C 239 544.871094 246.109375 541.628906 251.402344 536.652344 C 256.699219 531.675781 260.292969 525.078125 262.53125 518.148438 C 263.476562 515.21875 264.203125 512.152344 263.941406 509.082031 C 262.40625 491.019531 239.167969 499.421875 231.117188 506.015625 "/>
</g>
</g>
</g>
</g>
<g clip-path="url(#clip46)" clip-rule="nonzero">
<g clip-path="url(#clip47)" clip-rule="nonzero">
<g clip-path="url(#clip48)" clip-rule="nonzero">
<g clip-path="url(#clip49)" clip-rule="nonzero">
<g clip-path="url(#clip50)" clip-rule="nonzero">
<g clip-path="url(#clip51)" clip-rule="nonzero">
<path style=" stroke:none;fill-rule:nonzero;fill:rgb(85.488892%,64.709473%,59.999084%);fill-opacity:1;" d="M 386.175781 569.015625 C 380.621094 575.019531 377.9375 583.585938 379.0625 591.71875 C 379.382812 594.023438 380.035156 596.375 381.539062 598.148438 C 384.078125 601.144531 388.585938 601.839844 392.34375 600.746094 C 396.09375 599.65625 399.230469 597.09375 402.070312 594.402344 C 409.042969 587.804688 417.253906 576.734375 412 566.65625 C 406.320312 555.765625 392.433594 562.25 386.175781 569.015625 "/>
</g>
</g>
</g>
</g>
</g>
</g>
<g clip-path="url(#clip52)" clip-rule="nonzero">
<g clip-path="url(#clip53)" clip-rule="nonzero">
<g clip-path="url(#clip54)" clip-rule="nonzero">
<g clip-path="url(#clip55)" clip-rule="nonzero">
<path style=" stroke:none;fill-rule:nonzero;fill:rgb(85.488892%,64.709473%,59.999084%);fill-opacity:1;" d="M 324.222656 617.308594 C 322.84375 619.417969 321.554688 621.933594 322.238281 624.367188 C 322.871094 626.617188 325.03125 628.105469 327.222656 628.894531 C 332.542969 630.816406 338.609375 629.65625 343.503906 626.855469 C 348.398438 624.058594 352.277344 619.773438 355.671875 615.261719 C 357.222656 613.199219 358.707031 611.035156 359.5 608.578125 C 360.292969 606.121094 360.3125 603.304688 359.015625 601.0625 C 350.050781 585.550781 328.914062 610.117188 324.222656 617.308594 "/>
</g>
</g>
</g>
</g>
<g clip-path="url(#clip56)" clip-rule="nonzero">
<g clip-path="url(#clip57)" clip-rule="nonzero">
<g clip-path="url(#clip58)" clip-rule="nonzero">
<g clip-path="url(#clip59)" clip-rule="nonzero">
<g clip-path="url(#clip60)" clip-rule="nonzero">
<g clip-path="url(#clip61)" clip-rule="nonzero">
<path style=" stroke:none;fill-rule:nonzero;fill:rgb(85.488892%,64.709473%,59.999084%);fill-opacity:1;" d="M 226.855469 610.789062 C 226.96875 617.113281 231.128906 623.757812 237.363281 624.75 C 241.570312 625.421875 245.734375 623.5 249.359375 621.273438 C 255.347656 617.597656 260.800781 612.859375 264.535156 606.898438 C 265.640625 605.132812 266.601562 603.234375 266.953125 601.175781 C 268.714844 590.828125 258.488281 576.027344 247.144531 579.890625 C 236.425781 583.539062 226.65625 599.832031 226.855469 610.789062 "/>
</g>
</g>
</g>
</g>
</g>
</g>
</g>
</svg>
